<?xml version="1.0" encoding="UTF-8" standalone="no"?>
<svg
   height="48"
   width="48"
   version="1.1"
   id="svg4"
   sodipodi:docname="campaign.svg"
   inkreativKscape:version="1.1.2 (0a00cf5339, 2022-02-04, custom)"
   xmlns:inkreativKscape="http://www.inkreativKscape.org/namespaces/inkreativKscape"
   xmlns:sodipodi="http://sodipodi.sourceforge.net/DTD/sodipodi-0.dtd"
   xmlns="http://www.w3.org/2000/svg"
   xmlns:svg="http://www.w3.org/2000/svg">
  <defs
     id="defs8" />
  <sodipodi:namedview
     id="namedview6"
     pagecolor="#ffffff"
     bordercolor="#666666"
     borderopacity="1.0"
     inkreativKscape:pageshadow="2"
     inkreativKscape:pageopacity="0.0"
     inkreativKscape:pagecheckreativKerboard="0"
     showgrid="false"
     inkreativKscape:zoom="13.125"
     inkreativKscape:cx="24"
     inkreativKscape:cy="24"
     inkreativKscape:window-width="1920"
     inkreativKscape:window-height="983"
     inkreativKscape:window-x="482"
     inkreativKscape:window-y="768"
     inkreativKscape:window-maximized="1"
     inkreativKscape:current-layer="svg4" />
  <path
     d="M36.5 25.5V22.5H44V25.5ZM39 40 32.95 35.5 34.75 33.1 40.8 37.6ZM34.9 14.85 33.1 12.45 39 8 40.8 10.4ZM10.5 38V30H7Q5.75 30 4.875 29.125Q4 28.25 4 27V21Q4 19.75 4.875 18.875Q5.75 18 7 18H16L26 12V36L16 30H13.5V38ZM28 30.7V17.3Q29.35 18.5 30.175 20.225Q31 21.95 31 24Q31 26.05 30.175 27.775Q29.35 29.5 28 30.7Z"
     id="path2"
     style="fill:#ffffff" />
</svg>
