<?xml version="1.0" encoding="UTF-8" standalone="no"?>
<svg
   height="48"
   width="48"
   version="1.1"
   id="svg4"
   sodipodi:docname="lightbulb.svg"
   inkreativKscape:version="1.1.2 (0a00cf5339, 2022-02-04, custom)"
   xmlns:inkreativKscape="http://www.inkreativKscape.org/namespaces/inkreativKscape"
   xmlns:sodipodi="http://sodipodi.sourceforge.net/DTD/sodipodi-0.dtd"
   xmlns="http://www.w3.org/2000/svg"
   xmlns:svg="http://www.w3.org/2000/svg">
  <defs
     id="defs8" />
  <sodipodi:namedview
     id="namedview6"
     pagecolor="#ffffff"
     bordercolor="#666666"
     borderopacity="1.0"
     inkreativKscape:pageshadow="2"
     inkreativKscape:pageopacity="0.0"
     inkreativKscape:pagecheckreativKerboard="0"
     showgrid="false"
     inkreativKscape:zoom="13.125"
     inkreativKscape:cx="24"
     inkreativKscape:cy="24"
     inkreativKscape:window-width="1920"
     inkreativKscape:window-height="983"
     inkreativKscape:window-x="482"
     inkreativKscape:window-y="768"
     inkreativKscape:window-maximized="1"
     inkreativKscape:current-layer="svg4" />
  <path
     d="M24 44Q22.3 44 21.125 42.825Q19.95 41.65 19.95 39.95H28.05Q28.05 41.65 26.875 42.825Q25.7 44 24 44ZM15.9 36.85V33.85H32.1V36.85ZM16.15 30.8Q12.85 28.65 10.925 25.425Q9 22.2 9 18.15Q9 12.05 13.45 7.6Q17.9 3.15 24 3.15Q30.1 3.15 34.55 7.6Q39 12.05 39 18.15Q39 22.2 37.1 25.425Q35.2 28.65 31.85 30.8Z"
     id="path2"
     style="fill:#ffffff" />
</svg>
